<?xml version="1.0" standalone="no"?><svg xmlns="http://www.w3.org/2000/svg" viewBox="0 0 1440 320"><path fill="#fe433f" fill-opacity="0.1" d="M0,64L0,256L49.7,256L49.7,320L99.3,320L99.3,224L149,224L149,128L198.6,128L198.6,224L248.3,224L248.3,288L297.9,288L297.9,320L347.6,320L347.6,192L397.2,192L397.2,32L446.9,32L446.9,224L496.6,224L496.6,224L546.2,224L546.2,96L595.9,96L595.9,96L645.5,96L645.5,32L695.2,32L695.2,224L744.8,224L744.8,128L794.5,128L794.5,288L844.1,288L844.1,192L893.8,192L893.8,256L943.4,256L943.4,224L993.1,224L993.1,96L1042.8,96L1042.8,224L1092.4,224L1092.4,224L1142.1,224L1142.1,224L1191.7,224L1191.7,320L1241.4,320L1241.4,32L1291,32L1291,64L1340.7,64L1340.7,288L1390.3,288L1390.3,320L1440,320L1440,320L1390.3,320L1390.3,320L1340.7,320L1340.7,320L1291,320L1291,320L1241.4,320L1241.4,320L1191.7,320L1191.7,320L1142.1,320L1142.1,320L1092.4,320L1092.4,320L1042.8,320L1042.8,320L993.1,320L993.1,320L943.4,320L943.4,320L893.8,320L893.8,320L844.1,320L844.1,320L794.5,320L794.5,320L744.8,320L744.8,320L695.2,320L695.2,320L645.5,320L645.5,320L595.9,320L595.9,320L546.2,320L546.2,320L496.6,320L496.6,320L446.9,320L446.9,320L397.2,320L397.2,320L347.6,320L347.6,320L297.9,320L297.9,320L248.3,320L248.3,320L198.6,320L198.6,320L149,320L149,320L99.3,320L99.3,320L49.7,320L49.7,320L0,320L0,320Z" data-darkreader-inline-fill="" style="--darkreader-inline-fill:#fe241f;"></path></svg>