<?xml version="1.0" standalone="no"?><svg xmlns="http://www.w3.org/2000/svg" viewBox="0 0 1440 320"><path fill="#0099ff" fill-opacity="0.2" d="M0,288L40,282.7C80,277,160,267,240,224C320,181,400,107,480,80C560,53,640,75,720,106.7C800,139,880,181,960,208C1040,235,1120,245,1200,218.7C1280,192,1360,128,1400,96L1440,64L1440,320L1400,320C1360,320,1280,320,1200,320C1120,320,1040,320,960,320C880,320,800,320,720,320C640,320,560,320,480,320C400,320,320,320,240,320C160,320,80,320,40,320L0,320Z" data-darkreader-inline-fill="" style="--darkreader-inline-fill:#008ae6;"></path></svg>